# xmcd
#
# Track frame offsets: 
#        150
#        13806
#        46344
#        67463
#        84672
#        96538
#        111729
#        124844
#        159141
#        172408
#        187941
#
# Disc length: 2847 seconds
#
# Revision: 0
# Processed by: cddbd v1.5.2PL0 Copyright (c) Steve Scherf et al.
# Submitted via: ExactAudioCopy v0.99pb4
#
DISCID=a30b1d0b
DTITLE=Daniel Ecklbauer - Leave Your Yesterday Behind
DYEAR=2006
DGENRE=Blues
TTITLE0=Sugar Coated Love
TTITLE1=Drinking A Hot Shot With Siggi
TTITLE2=Wandsbeck Blues
TTITLE3=Boogie In The Barrelhouse
TTITLE4=Maple Leave Rack
TTITLE5=Servus Hans
TTITLE6=Clown Without Make Up
TTITLE7=Wir Waren Jung
TTITLE8=Rather Be Lonesome
TTITLE9=Can`t Stop It
TTITLE10=Take A Giant Step Outside Your Mind
EXTD=
EXTT0=
EXTT1=
EXTT2=
EXTT3=
EXTT4=
EXTT5=
EXTT6=
EXTT7=
EXTT8=
EXTT9=
EXTT10=
PLAYORDER=
